<?xml version="1.0" encoding="utf-8"?>
<!-- Generator: Adobe Illustrator 19.1.0, SVG Export Plug-In . SVG Version: 6.00 Build 0)  -->
<!DOCTYPE svg PUBLIC "-//W3C//DTD SVG 1.1//EN" "http://www.w3.org/Graphics/SVG/1.1/DTD/svg11.dtd">
<svg version="1.1" xmlns="http://www.w3.org/2000/svg" xmlns:xlink="http://www.w3.org/1999/xlink" x="0px" y="0px"
	 viewBox="83.6 0 512 512" style="enable-background:new 83.6 0 512 512;" xml:space="preserve">
<style type="text/css">
	.st0{display:none;}
	.st1{display:inline;fill:none;stroke:#0074FF;stroke-width:2;stroke-miterlimit:10;}
	.st2{fill:#4971A9;}
	.st3{fill:#FFFFFF;}
	.st4{fill:#14ACCF;}
	.st5{fill:#F58A1F;}
	.st6{font-family:'Arial-BoldMT';}
	.st7{font-size:100px;}
</style>
<g id="grid" class="st0">
	<circle class="st1" cx="547.7" cy="48" r="48"/>
	<circle class="st1" cx="131.6" cy="464" r="48"/>
	<circle class="st1" cx="131.6" cy="48" r="48"/>
	<circle class="st1" cx="547.7" cy="464" r="48"/>
	<circle class="st1" cx="339.6" cy="256" r="150"/>
	<line class="st1" x1="83.6" y1="512" x2="595.7" y2="0"/>
	<line class="st1" x1="83.6" y1="0" x2="595.7" y2="512"/>
	<line class="st1" x1="83.6" y1="256" x2="595.7" y2="256"/>
	<line class="st1" x1="339.6" y1="512" x2="339.6" y2="0"/>
	<line class="st1" x1="83.6" y1="151.1" x2="595.7" y2="148.1"/>
	<line class="st1" x1="83.6" y1="363.1" x2="595.7" y2="361.1"/>
	<line class="st1" x1="233" y1="512" x2="234" y2="0"/>
	<line class="st1" x1="446" y1="0" x2="446" y2="512"/>
</g>
<g id="レイヤー_3">
	<path class="st2" d="M549.6,512h-420c-25.4,0-46-20.6-46-46v-420c0-25.4,20.6-46,46-46h420c25.4,0,46,20.6,46,46v420
		C595.7,491.5,575.1,512,549.6,512z"/>
	<g>
		
			<image style="overflow:visible;opacity:0.2;" width="445" height="446" xlink:href="65C343A4A648CC60.png"  transform="matrix(1 0 0 1 117 48)">
		</image>
		<g>
			<rect x="165.6" y="81" class="st3" width="348.1" height="348.1"/>
		</g>
	</g>
</g>
<g id="Layer_1">
	<g>
		
			<image style="overflow:visible;opacity:0.2;" width="297" height="302" xlink:href="65C343A4A648CC6D.png"  transform="matrix(1 0 0 1 191 77)">
		</image>
		<g>
			<g>
				<path class="st4" d="M239.6,281.2v0.7c0,18.3,14.8,33.1,33.1,33.1s33.1-14.8,33.1-33.1v-36.4L239.6,281.2z"/>
				<path class="st4" d="M439.6,281.4c-0.6-7.1-3.5-13.6-8.6-18.7v-0.2L371.6,210l-57.7,31l74.6,66.3c5.6,4.9,12.7,7.5,20.2,7.5l0,0
					c0.9,0,1.9,0,2.6-0.2c8.2-0.7,15.7-4.7,20.9-10.8C437.7,297.6,440.1,289.6,439.6,281.4z"/>
				<path class="st4" d="M305.8,146.8v-3.5c0-0.2,0-0.6,0-0.7c0-18.3-14.9-33.1-33.1-33.1c-18.3,0-33.1,14.8-33.1,33.1v40.5
					L305.8,146.8z"/>
				<path class="st5" d="M239.6,197.3L394.2,113c4.5-2.4,9.5-3.5,14.6-3.5c3.2,0,6.4,0.6,9.5,1.5c16.3,5.2,25,22.6,19.8,38.9
					c-2.2,6.7-6.5,12.5-12.5,16.4v0.2l-1.9,1.1l-184,99.4L239.6,197.3L239.6,197.3z"/>
			</g>
		</g>
	</g>
	<text transform="matrix(1.1 0 0 1 186.869 404.1)" class="st4 st6 st7">Kodic</text>
</g>
</svg>
